TITLE ""
FILE "Step1_Track23.mp3" MP3
  TRACK 01 AUDIO
    TITLE "Step1_Track23_01"
    INDEX 01 00:00:00
  TRACK 02 AUDIO
    TITLE "Step1_Track23_02"
    INDEX 01 00:00:22
  TRACK 03 AUDIO
    TITLE "Step1_Track23_03"
    INDEX 01 00:02:01
  TRACK 04 AUDIO
    TITLE "Step1_Track23_04"
    INDEX 01 00:02:56
  TRACK 05 AUDIO
    TITLE "Step1_Track23_05"
    INDEX 01 00:03:46
  TRACK 06 AUDIO
    TITLE "Step1_Track23_06"
    INDEX 01 00:03:69
  TRACK 07 AUDIO
    TITLE "Step1_Track23_07"
    INDEX 01 00:05:70
  TRACK 08 AUDIO
    TITLE "Step1_Track23_08"
    INDEX 01 00:06:21
  TRACK 09 AUDIO
    TITLE "Step1_Track23_09"
    INDEX 01 00:07:20
  TRACK 10 AUDIO
    TITLE "Step1_Track23_10"
    INDEX 01 00:07:26
  TRACK 11 AUDIO
    TITLE "Step1_Track23_11"
    INDEX 01 00:09:45
  TRACK 12 AUDIO
    TITLE "Step1_Track23_12"
    INDEX 01 00:10:05
  TRACK 13 AUDIO
    TITLE "Step1_Track23_13"
    INDEX 01 00:11:06
  TRACK 14 AUDIO
    TITLE "Step1_Track23_14"
    INDEX 01 00:11:24
  TRACK 15 AUDIO
    TITLE "Step1_Track23_15"
    INDEX 01 00:13:44
  TRACK 16 AUDIO
    TITLE "Step1_Track23_16"
    INDEX 01 00:14:03
  TRACK 17 AUDIO
    TITLE "Step1_Track23_17"
    INDEX 01 00:15:04
  TRACK 18 AUDIO
    TITLE "Step1_Track23_18"
    INDEX 01 00:15:06
  TRACK 19 AUDIO
    TITLE "Step1_Track23_19"
    INDEX 01 00:17:19
  TRACK 20 AUDIO
    TITLE "Step1_Track23_20"
    INDEX 01 00:17:58
  TRACK 21 AUDIO
    TITLE "Step1_Track23_21"
    INDEX 01 00:18:53
  TRACK 22 AUDIO
    TITLE "Step1_Track23_22"
    INDEX 01 00:19:00
  TRACK 23 AUDIO
    TITLE "Step1_Track23_23"
    INDEX 01 00:21:01
  TRACK 24 AUDIO
    TITLE "Step1_Track23_24"
    INDEX 01 00:21:24
  TRACK 25 AUDIO
    TITLE "Step1_Track23_25"
    INDEX 01 00:22:31
  TRACK 26 AUDIO
    TITLE "Step1_Track23_26"
    INDEX 01 00:22:47
  TRACK 27 AUDIO
    TITLE "Step1_Track23_27"
    INDEX 01 00:25:04
  TRACK 28 AUDIO
    TITLE "Step1_Track23_28"
    INDEX 01 00:25:38
  TRACK 29 AUDIO
    TITLE "Step1_Track23_29"
    INDEX 01 00:26:39
  TRACK 30 AUDIO
    TITLE "Step1_Track23_30"
    INDEX 01 00:26:53
  TRACK 31 AUDIO
    TITLE "Step1_Track23_31"
    INDEX 01 00:28:52
  TRACK 32 AUDIO
    TITLE "Step1_Track23_32"
    INDEX 01 00:29:26
  TRACK 33 AUDIO
    TITLE "Step1_Track23_33"
    INDEX 01 00:30:17
  TRACK 34 AUDIO
    TITLE "Step1_Track23_34"
    INDEX 01 00:30:37
  TRACK 35 AUDIO
    TITLE "Step1_Track23_35"
    INDEX 01 00:33:02
  TRACK 36 AUDIO
    TITLE "Step1_Track23_36"
    INDEX 01 00:33:18
  TRACK 37 AUDIO
    TITLE "Step1_Track23_37"
    INDEX 01 00:34:23
  TRACK 38 AUDIO
    TITLE "Step1_Track23_38"
    INDEX 01 00:34:33
  TRACK 39 AUDIO
    TITLE "Step1_Track23_39"
    INDEX 01 00:36:57
  TRACK 40 AUDIO
    TITLE "Step1_Track23_40"
    INDEX 01 00:37:15
  TRACK 41 AUDIO
    TITLE "Step1_Track23_41"
    INDEX 01 00:38:13
  TRACK 42 AUDIO
    TITLE "Step1_Track23_42"
    INDEX 01 00:38:21
  TRACK 43 AUDIO
    TITLE "Step1_Track23_43"
    INDEX 01 00:40:25
